#!OML:ASF I:\salsa\salsa 7_09\Patient 1\Session 1\dancerfemale.ASF
:FULLY-SPECIFIED
:DEGREES
1532
root 19.6469 15.9398 -1.25248 -2513.42 265.983 716.288
lowerback 3.24271 0.636424 -5.61017
upperback -6.66479 0.395705 1.40352
thorax -8.94649 0.581406 4.60953
lowerneck -5.48939 -0.316957 -7.26398
upperneck 12.3812 -0.85489 8.24015
head 4.65216 -0.330849 3.70482
rclavicle 6.26172e-015 9.0447e-015
rhumerus -33.4283 -8.91293 -92.1136
rradius 36.8921
rwrist -4.73013
rhand 6.41203 49.0188
rfingers 7.12502
rthumb 31.7159 21.7562
lclavicle 6.26172e-015 9.0447e-015
lhumerus -60.4199 20.1386 66.2252
lradius 39.8505
lwrist -26.0485
lhand -16.2774 32.7866
lfingers 7.12502
lthumb 9.93258 62.5323
rfemur -12.6685 -4.31701 23.0375
rtibia 28.0555
rfoot -21.3082 -3.44519
rtoes 6.96874
lfemur -19.9356 2.77105 -25.3078
ltibia 37.0072
lfoot -29.597 0.827021
ltoes 8.24069
1533
root 19.6482 15.9383 -1.25399 -2511.56 266.176 714.356
lowerback 3.38681 0.673181 -5.87487
upperback -6.63684 0.428195 1.51697
thorax -9.01479 0.623361 4.87789
lowerneck -5.57456 -0.430206 -7.44135
upperneck 12.4031 -0.96298 8.08406
head 4.68314 -0.397753 3.67988
rclavicle -2.03506e-014 -9.74045e-015
rhumerus -33.3603 -9.30697 -91.607
rradius 36.1407
rwrist -4.1994
rhand 6.39568 49.0199
rfingers 7.12502
rthumb 31.7003 21.7543
lclavicle -2.03506e-014 -9.74045e-015
lhumerus -60.1951 20.627 66.1748
lradius 40.0883
lwrist -26.2319
lhand -15.4996 32.4853
lfingers 7.12502
lthumb 10.6829 62.1937
rfemur -12.6353 -4.47919 22.9127
rtibia 28.136
rfoot -21.1353 -3.62493
rtoes 6.48624
lfemur -19.8383 2.67663 -25.4184
ltibia 36.9739
lfoot -29.6871 0.742159
ltoes 7.6781
1534
root 19.6507 15.9368 -1.25368 -2509.59 266.407 712.376
lowerback 3.46871 0.724769 -6.13641
upperback -6.63415 0.483211 1.64731
thorax -9.0784 0.676887 5.16072
lowerneck -5.61369 -0.5568 -7.70157
upperneck 12.4478 -1.09328 7.98766
head 4.71553 -0.477565 3.68635
rclavicle 9.41742e-015 4.96962e-015
rhumerus -33.4348 -9.79765 -90.9618
rradius 35.4288
rwrist -3.56598
rhand 6.40015 49.0976
rfingers 7.12502
rthumb 31.7045 21.8328
lclavicle 9.41742e-015 4.96962e-015
lhumerus -59.8152 21.0857 66.3476
lradius 40.189
lwrist -25.8426
lhand -15.355 31.9792
lfingers 7.12502
lthumb 10.8223 61.6804
rfemur -12.6629 -4.60723 22.8065
rtibia 28.2092
rfoot -21.0702 -3.77875
rtoes 6.29792
lfemur -19.8411 2.66528 -25.5326
ltibia 36.9698
lfoot -29.7778 0.588293
ltoes 7.05263
1535
root 19.6542 15.9375 -1.2518 -2508.89 266.704 711.716
lowerback 3.526 0.783963 -6.24708
upperback -6.68475 0.557526 1.76991
thorax -9.18557 0.731108 5.34821
lowerneck -5.66535 -0.677251 -7.88598
upperneck 12.6649 -1.23105 7.86308
head 4.803 -0.561163 3.67256
rclavicle 8.69683e-015 1.59028e-015
rhumerus -33.6159 -10.4516 -90.2162
rradius 34.6673
rwrist -2.80888
rhand 6.42894 49.1259
rfingers 7.12502
rthumb 31.732 21.8665
lclavicle 8.69683e-015 1.59028e-015
lhumerus -59.3181 21.2522 66.9516
lradius 40.3205
lwrist -25.0903
lhand -15.5903 32.8064
lfingers 7.12502
lthumb 10.5954 62.5193
rfemur -12.7274 -4.65211 22.8191
rtibia 28.2616
rfoot -21.1587 -3.9966
rtoes 5.57239
lfemur -19.9474 2.71695 -25.5445
ltibia 36.9958
lfoot -29.7211 0.331677
ltoes 6.3491
1536
root 19.6563 15.9376 -1.25009 -2509.18 267.027 712.017
lowerback 3.63187 0.866438 -6.2643
upperback -6.75156 0.667566 1.89778
thorax -9.34297 0.798769 5.4845
lowerneck -5.68448 -0.829954 -8.01221
upperneck 12.8731 -1.40082 7.59419
head 4.88457 -0.667244 3.60099
rclavicle -5.46658e-016 -3.97569e-015
rhumerus -33.8677 -11.1811 -89.3378
rradius 33.7829
rwrist -1.98958
rhand 6.4442 49.1537
rfingers 7.12502
rthumb 31.7465 21.8972
lclavicle -5.46658e-016 -3.97569e-015
lhumerus -58.8081 21.3607 67.6923
lradius 40.5319
lwrist -24.6766
lhand -15.7361 35.4739
lfingers 7.12502
lthumb 10.4547 65.194
rfemur -12.7193 -4.62627 22.902
rtibia 28.2758
rfoot -21.229 -4.31954
rtoes 4.49025
lfemur -20.0393 2.79892 -25.4894
ltibia 37.0562
lfoot -29.6276 -0.00177721
ltoes 5.95253
1537
root 19.6572 15.9363 -1.24716 -2509.02 267.436 711.803
lowerback 3.78214 0.922979 -6.28245
upperback -6.77388 0.74416 2.03643
thorax -9.47334 0.849531 5.63654
lowerneck -5.70062 -0.998798 -8.18576
upperneck 13.0121 -1.57737 7.29274
head 4.94531 -0.780423 3.52544
rclavicle -1.44119e-015 -1.39149e-014
rhumerus -34.2295 -11.9494 -88.3449
rradius 32.8963
rwrist -1.03924
rhand 6.44119 49.3179
rfingers 7.12502
rthumb 31.7436 22.0609
lclavicle -1.44119e-015 -1.39149e-014
lhumerus -58.2619 21.568 68.4745
lradius 40.6751
lwrist -24.2233
lhand -17.1123 35.7139
lfingers 7.12502
lthumb 9.12697 65.4964
rfemur -12.5907 -4.64824 22.9591
rtibia 28.2329
rfoot -21.2804 -4.69467
rtoes 3.6371
lfemur -20.069 2.78398 -25.4527
ltibia 37.1591
lfoot -29.6292 -0.35825
ltoes 5.82786
1538
root 19.6594 15.934 -1.24256 -2510.15 267.906 712.896
lowerback 3.89134 0.947994 -6.23141
upperback -6.76431 0.789863 2.1947
thorax -9.53734 0.878102 5.77399
lowerneck -5.71751 -1.16742 -8.39126
upperneck 13.0496 -1.75309 7.06577
head 4.97551 -0.889238 3.47748
rclavicle -3.37934e-015 -1.78906e-014
rhumerus -34.5936 -12.7312 -87.3143
rradius 32.0356
rwrist -0.0520634
rhand 6.41392 49.3796
rfingers 7.12502
rthumb 31.7177 22.1174
lclavicle -3.37934e-015 -1.78906e-014
lhumerus -57.656 21.9209 69.2077
lradius 40.9301
lwrist -24.4145
lhand -17.2696 32.8739
lfingers 7.12502
lthumb 8.97522 62.663
rfemur -12.4784 -4.70421 23.0751
rtibia 28.157
rfoot -21.3794 -5.03011
rtoes 3.57495
lfemur -20.14 2.60286 -25.3617
ltibia 37.288
lfoot -29.6416 -0.583743
ltoes 5.75094
1539
root 19.6622 15.9305 -1.24143 -2514.98 268.244 717.759
lowerback 3.91459 1.03099 -6.19579
upperback -6.77662 0.919744 2.41021
thorax -9.59053 0.950933 5.97271
lowerneck -5.69472 -1.35991 -8.58334
upperneck 12.9986 -1.95417 6.7898
head 4.97352 -1.01234 3.40923
rclavicle -1.66979e-014 -9.54166e-015
rhumerus -35.0099 -13.5433 -86.1458
rradius 31.1703
rwrist 0.920902
rhand 6.46809 49.3493
rfingers 7.12502
rthumb 31.7692 22.0974
lclavicle -1.66979e-014 -9.54166e-015
lhumerus -56.9868 22.3772 69.9366
lradius 41.2731
lwrist -24.9998
lhand -16.2385 31.8035
lfingers 7.12502
lthumb 9.97009 61.5474
rfemur -12.4732 -4.69757 23.2963
rtibia 28.0865
rfoot -21.4755 -5.23115
rtoes 4.40945
lfemur -20.2872 2.42373 -25.1724
ltibia 37.4203
lfoot -29.616 -0.673757
ltoes 5.7315
1540
root 19.6625 15.9274 -1.24178 -2520.43 268.536 723.213
lowerback 3.96742 1.16027 -6.18393
upperback -6.79103 1.1055 2.58546
thorax -9.67356 1.05236 6.13426
lowerneck -5.74143 -1.57611 -8.7629
upperneck 13.028 -2.19135 6.54237
head 5.01086 -1.15069 3.34594
rclavicle 1.07344e-014 2.66371e-014
rhumerus -35.5751 -14.5751 -84.8233
rradius 30.3483
rwrist 1.97468
rhand 6.6038 49.2612
rfingers 7.12502
rthumb 31.8985 22.0349
lclavicle 1.07344e-014 2.66371e-014
lhumerus -56.1449 22.5363 71.0641
lradius 41.6395
lwrist -24.6295
lhand -16.4202 32.768
lfingers 7.12502
lthumb 9.7948 62.5202
rfemur -12.4358 -4.82153 23.4634
rtibia 28.0381
rfoot -21.46 -5.37216
rtoes 4.14245
lfemur -20.3758 2.25321 -25.0183
ltibia 37.5435
lfoot -29.5317 -0.769107
ltoes 5.78749
1541
root 19.6621 15.9254 -1.23985 -2524.73 268.895 727.454
lowerback 4.07682 1.30535 -6.17789
upperback -6.78179 1.30486 2.67736
thorax -9.76439 1.15748 6.20541
lowerneck -5.6689 -1.80474 -8.91341
upperneck 12.9335 -2.46528 6.38234
head 4.99274 -1.30098 3.30249
rclavicle 3.8763e-015 -3.18055e-015
rhumerus -36.2301 -15.8564 -83.3738
rradius 29.5218
rwrist 3.11055
rhand 6.67072 49.0745
rfingers 7.12502
rthumb 31.9622 21.861
lclavicle 3.8763e-015 -3.18055e-015
lhumerus -55.2426 22.5801 72.2202
lradius 41.8974
lwrist -24.075
lhand -17.1238 31.8862
lfingers 7.12502
lthumb 9.11588 61.6692
rfemur -12.3496 -5.1387 23.5109
rtibia 28.0193
rfoot -21.2913 -5.54127
rtoes 1.25305
lfemur -20.3883 1.99546 -24.9685
ltibia 37.6483
lfoot -29.3776 -0.850727
ltoes 5.97624
1542
root 19.664 15.9231 -1.23775 -2527.75 269.229 730.4
lowerback 4.18594 1.45545 -6.27147
upperback -6.76241 1.50322 2.77296
thorax -9.84956 1.26946 6.33706
lowerneck -5.35969 -2.00749 -9.08065
upperneck 12.6164 -2.71251 6.20655
head 4.86398 -1.44067 3.25884
rclavicle -1.28216e-014 7.15625e-015
rhumerus -37.0053 -17.0729 -81.8464
rradius 28.7404
rwrist 4.22048
rhand 6.64059 48.9389
rfingers 7.12502
rthumb 31.9335 21.7196
lclavicle -1.28216e-014 7.15625e-015
lhumerus -54.3469 22.6075 73.4505
lradius 42.2357
lwrist -23.6849
lhand -17.7989 30.94
lfingers 7.12502
lthumb 8.46441 60.7504
rfemur -12.2867 -5.46948 23.4867
rtibia 28.0364
rfoot -21.28 -5.56319
rtoes 1.70632
lfemur -20.3859 1.74274 -24.9935
ltibia 37.7299
lfoot -29.2493 -0.884809
ltoes 6.37171
1543
root 19.6671 15.9191 -1.23631 -2536.48 269.536 739.04
lowerback 4.28709 1.71419 -6.33523
upperback -6.75701 1.84498 2.78989
thorax -9.96593 1.44702 6.34524
lowerneck -4.91225 -2.28382 -9.14349
upperneck 12.3195 -3.0909 6.04956
head 4.72704 -1.64177 3.19834
rclavicle -2.95195e-014 3.97569e-016
rhumerus -38.0497 -18.5228 -80.2149
rradius 28.1763
rwrist 5.17812
rhand 6.61599 48.9527
rfingers 7.12502
rthumb 31.9101 21.7288
lclavicle -2.95195e-014 3.97569e-016
lhumerus -53.2837 22.3125 74.7974
lradius 42.5365
lwrist -23.5623
lhand -18.2063 30.227
lfingers 7.12502
lthumb 8.07126 60.0529
rfemur -12.2169 -5.68666 23.4912
rtibia 28.092
rfoot -21.3287 -5.68763
rtoes 1.7184
lfemur -20.3597 1.5155 -24.9977
ltibia 37.7905
lfoot -29.1853 -0.92014
ltoes 6.64961
1544
root 19.6696 15.9138 -1.23475 -2586.34 269.771 788.769
lowerback 4.38049 2.06503 -6.28168
upperback -6.74233 2.31547 2.70915
thorax -10.0765 1.67327 6.15907
lowerneck -4.38551 -2.68546 -8.97997
upperneck 12.0015 -3.65969 5.82108
head 4.57952 -1.93131 3.0698
rclavicle 4.77083e-015 1.51076e-014
rhumerus -39.2859 -20.3465 -78.4132
rradius 27.6804
rwrist 6.14374
rhand 6.64716 49.0103
rfingers 7.12502
rthumb 31.9398 21.7923
lclavicle 4.77083e-015 1.51076e-014
lhumerus -52.024 21.5889 76.2736
lradius 42.7833
lwrist -23.6184
lhand -18.0208 29.8791
lfingers 7.12502
lthumb 8.25024 59.698
rfemur -12.1111 -5.8388 23.5585
rtibia 28.1789
rfoot -21.4296 -5.9166
rtoes 1.36746
lfemur -20.2838 1.29573 -24.9466
ltibia 37.8279
lfoot -29.0976 -1.00183
ltoes 6.64053
